PathFileType	4	(X/Y/Z)	70_2_50_p0_0-316_filt_butterworth.trc
DataRate	CameraRate	NumFrames	NumMarkers	Units	OrigDataRate	OrigDataStartFrame	OrigNumFrames
48.0	48.0	5	27	m	48.0	39	316
Frame#	Time	RHip			RKnee			RAnkle			RBigToe			RSmallToe			RHeel			LHip			LKnee			LAnkle			LBigToe			LSmallToe			LHeel			Neck			Head			Nose			RShoulder			RElbow			RWrist			RThumb			RIndex			RPinky			LShoulder			LElbow			LWrist			LThumb			LIndex			LPinky			
		X1	Y1	Z1	X2	Y2	Z2	X3	Y3	Z3	X4	Y4	Z4	X5	Y5	Z5	X6	Y6	Z6	X7	Y7	Z7	X8	Y8	Z8	X9	Y9	Z9	X10	Y10	Z10	X11	Y11	Z11	X12	Y12	Z12	X13	Y13	Z13	X14	Y14	Z14	X15	Y15	Z15	X16	Y16	Z16	X17	Y17	Z17	X18	Y18	Z18	X19	Y19	Z19	X20	Y20	Z20	X21	Y21	Z21	X22	Y22	Z22	X23	Y23	Z23	X24	Y24	Z24	X25	Y25	Z25	X26	Y26	Z26	X27	Y27	Z27	
39	0.8125	0.34971442390399715	0.47004024575376785	0.10490741663504294	0.340537410489996	0.6194788533303877	0.5156168369085812	0.36682502956705765	0.7726317433019967	0.9414387815000043	0.3265733655257841	0.6170296367373593	0.9991492479770918	0.38942903348943114	0.6154543237186738	0.9985476426731926	0.36866605613105824	0.8663976164365438	0.9900655111362685	0.11486636376820605	0.5376791608416214	0.10211814110690409	0.13549807780470138	0.678998930626029	0.532372551289355	0.1774067915937329	0.8044661689432457	0.9526350887766963	0.1649303932332259	0.6157798737672686	0.9838989637198603	0.10697273021984348	0.7051151489586487	0.9887949438116009	0.1961847542151365	0.8498404323727298	0.9945347048849339	0.23711811034297972	0.4094409917007099	-0.47325552214052136	0.22372482625682455	0.3303628280355197	-0.7232195718586475	0.19294292886320968	0.27754371823411184	-0.5666788289390403	0.39796724851193294	0.40571003502335384	-0.367149930445545	0.47649658020444685	0.46794700050323723	-0.10805086523811078	0.5108873667363555	0.45779553280716645	0.1188187070863403	0.4565800138769363	0.38755776269161146	0.24117272860099845	0.479446506126966	0.4026680949120195	0.2732986096823956	0.5162528430771288	0.5067159122724197	0.2849334861995545	0.07937280380983529	0.4873346525227675	-0.3805019184504985	0.012196172266352261	0.5743454432341667	-0.11159430809102917	0.001959255392644516	0.5873559005512092	0.13003434205163486	0.0362339027033989	0.5173787144922617	0.22356352182584127	0.009009069759207091	0.5388996502897931	0.2507161524571446	-0.006720835864988457	0.5906787841449763	0.24306229281534913
40	0.8333333333333334	0.34981550267996725	0.4705630486159729	0.10476394126288639	0.33924472855516274	0.6191550322929327	0.5152579998493848	0.36550629729275896	0.7722617494614819	0.9412907039971218	0.32582514360627424	0.6108650180401898	0.9972312197960518	0.38946029112559094	0.615438528927089	0.9986014462919405	0.3686556920188616	0.8664978048257106	0.9900263395061868	0.11755831262072519	0.5360466729505877	0.09797429484481321	0.13627692997866925	0.6770956629819267	0.5304997351585488	0.17734466153822734	0.8045784675964813	0.9525726892484035	0.16572735008501882	0.6150006182817338	0.9821041868320709	0.10587796377317121	0.7054029827312113	0.9901076646456044	0.19663817464939184	0.8502570347064111	0.9934884389897086	0.23712967182015077	0.40942820809305824	-0.473262104617842	0.22372076760620102	0.3303739281873407	-0.7232031320130429	0.19302580059202545	0.27755951430228637	-0.5667093955247011	0.3966451703945482	0.40235651866854677	-0.36687832864811254	0.47275440464480556	0.46305746354111005	-0.10579741660934713	0.5009598222662045	0.45709745137148333	0.11997627234142323	0.4453910216318291	0.3962573345304542	0.23956522451049495	0.4591596466259153	0.4059191665148013	0.273885822580341	0.49666957019436525	0.4840657666559465	0.286240590622287	0.08048425805144761	0.4911430062869002	-0.37961757272656427	0.01232285906375261	0.5754733774903049	-0.11070932567267942	0.008748909956177841	0.6043430838037591	0.13017575234037917	0.040135389234896554	0.517218909436661	0.22140035547503023	0.014120007387536132	0.5373410201589826	0.2492209713385688	-0.0003882504176041708	0.6039079006839377	0.2429394301907181
41	0.8541666666666666	0.34980464893909463	0.4707707187930911	0.10471387845178998	0.3374493733030618	0.6188715870581653	0.5154303279581446	0.36351850712454614	0.7716232739999278	0.9410578102809299	0.3242881701606454	0.6067129031931848	0.9957978387702278	0.3895478661900382	0.6150599672205765	0.9981030203384211	0.36858289903444075	0.8668972622561556	0.9901065098057586	0.11890704635744563	0.5370493400735858	0.09690240027061083	0.13673265711377675	0.6759590316322567	0.5280299618394045	0.17744557318240337	0.8046775518562622	0.9525117001351262	0.16542818609368037	0.6139480030808225	0.9797344074913578	0.10556707003959921	0.7057618378800247	0.9903189018790062	0.19684362778177325	0.8505833794722542	0.9915841874514489	0.23713891305696796	0.4094240579122372	-0.4732344129419044	0.22371647302973235	0.33037450852360783	-0.7232156118692158	0.19301361734245454	0.2775650329897244	-0.5666426193668872	0.39739183710212356	0.4004159072744161	-0.3662594391885375	0.47000971688880455	0.4603366756695157	-0.10395969795584832	0.4886802161537177	0.45224915282698963	0.12050853499701426	0.4348559192739854	0.39906913504957053	0.23590166538946328	0.4476757290149912	0.40879116089021866	0.2709218895947948	0.47581007721230195	0.45527802367874753	0.2844584648395378	0.08065896685675772	0.49220554995110777	-0.3781078097536186	0.012348520625545298	0.5761834134258559	-0.10955542326783976	0.00782788034547616	0.6009917040276639	0.1302037229967125	0.03953430204726252	0.5167893054803526	0.22092887436856679	0.014648985060090717	0.5327226485910246	0.24865323545481496	-0.0007098516327644261	0.6029932625929781	0.24342025508130444
42	0.875	0.3498146406949149	0.470899787292646	0.10549643653331581	0.3372592582153231	0.6191219317090413	0.5166294269064835	0.3621545600998467	0.7711331564182101	0.9408932705590448	0.32240621463345404	0.6058637036288281	0.9954017368395268	0.3897524671272384	0.6141374440964882	0.9964227189658789	0.36847946995030134	0.8674719119079861	0.9903114678065716	0.11847377364379534	0.5417698784918641	0.10025756688997854	0.13743009961188937	0.6770011033219523	0.5276137445459912	0.17762777768482219	0.8047503374300364	0.9524966967736259	0.16487874309766684	0.6133672278771928	0.9782159140393827	0.10566149590662244	0.706034921969861	0.9900481681167063	0.19705216800273864	0.8510531772901508	0.9904110913511907	0.2371428013023386	0.40946380707487484	-0.4731637392406155	0.22370657500864544	0.3303636421087442	-0.7232738929306524	0.19293046997432428	0.27756763744728663	-0.5664338893444182	0.3997954981263393	0.3999884169611361	-0.36491604751465007	0.46835304979026193	0.4599690880532549	-0.1029677558190655	0.4731149383111275	0.4419245518139105	0.12042173158785514	0.4169300643816882	0.39426923802277025	0.23045506133658827	0.4360290568260215	0.4075148530558249	0.2651904864949967	0.4603802465098228	0.435556843691372	0.27942270983206036	0.08044100220085038	0.4919876255038064	-0.37711468382335134	0.012152311849364134	0.5764136476386474	-0.10838104898429182	0.0022794365064361215	0.5834417231284983	0.130357106589531	0.03818923233506633	0.5152814434769509	0.22196491507146598	0.013649846106526413	0.5263343892585514	0.24871808716051508	-0.007154499246001246	0.5861835239461124	0.24413710562990826
43	0.8958333333333334	0.35043317311247135	0.4721690386234194	0.10762673858483451	0.3393063108257058	0.6202185417784838	0.5184091669193003	0.36187477569980875	0.7709615324259929	0.9408561632901835	0.32120079400156815	0.6064046395200655	0.9955441889719279	0.38999921910800256	0.6131846239815985	0.9942675849315544	0.36858116991394585	0.8662550219040371	0.9899859563745512	0.11680154163492007	0.5466721928138659	0.10672856039028635	0.13935461430713847	0.6825747042165199	0.5307056984969427	0.17739811022977228	0.804699803899359	0.9524941139073544	0.1646077728005834	0.613359874289694	0.9788550820085469	0.10578379561715814	0.7060673658510637	0.9902078772056714	0.1972515275099233	0.8514223401698278	0.9904057754970993	0.2371432935922506	0.40953356602711405	-0.47309356492889515	0.22368977232681728	0.330339872927178	-0.723356280564738	0.19287283803498875	0.27756973384697	-0.5661534612375175	0.40251426153221637	0.400146754479614	-0.3626347377304363	0.46678153063961514	0.4601662422182458	-0.10238877008161447	0.45846261343053274	0.4287980320410488	0.11941814708676707	0.3944707404030061	0.3868568661857571	0.22659621794608875	0.41853403614341317	0.39861102517014213	0.25995828506475666	0.4517435966225663	0.4310150164319846	0.2736943422743964	0.08027978846910935	0.4917564287341805	-0.37692767594005167	0.011794643898740723	0.576176094837835	-0.1080197466893939	-0.0046549952823918914	0.5632371809421397	0.12857180039902993	0.03740932397646727	0.5145107119437855	0.2241221536538392	0.012016931077326704	0.5196755657074986	0.2491149223480323	-0.01500000329347846	0.5669976428905268	0.24576179158175496
